<svg id="Group_65" data-name="Group 65" xmlns="http://www.w3.org/2000/svg" width="76.596" height="76.709" viewBox="0 0 76.596 76.709">
  <path id="Path_2" data-name="Path 2" d="M285.7,1722.453a.842.842,0,0,0,1.187-.094,36.681,36.681,0,0,1,34.973-12.171.842.842,0,0,0,.325-1.652,38.666,38.666,0,0,0-15.922.223,38.144,38.144,0,0,0-14.781,6.934,38.6,38.6,0,0,0-5.876,5.574.842.842,0,0,0,.094,1.187" transform="translate(-276.45 -1707.703)" fill="#d6d6d8"/>
  <path id="Path_3" data-name="Path 3" d="M336.175,1748.574h0a38.2,38.2,0,0,0-8.456-15.978,38.53,38.53,0,0,0-6.722-6,.842.842,0,0,0-.966,1.379,36.616,36.616,0,1,1-57.6,30c0-1.07.046-2.15.139-3.21a.842.842,0,0,0-1.677-.146c-.1,1.109-.145,2.238-.145,3.356a38.118,38.118,0,0,0,6.541,21.413,38.412,38.412,0,0,0,16.849,13.876,38.245,38.245,0,0,0,36.321-3.532,38.411,38.411,0,0,0,13.875-16.85,38.486,38.486,0,0,0,1.846-24.313" transform="translate(-260.742 -1719.568)" fill="#d6d6d8"/>
  <path id="Path_4" data-name="Path 4" d="M363.243,1720.6v3.731a.842.842,0,1,0,1.684,0V1720.6a.842.842,0,1,0-1.684,0" transform="translate(-326.035 -1715.307)" fill="#d6d6d8"/>
  <path id="Path_5" data-name="Path 5" d="M363.243,1892.883v3.732a.842.842,0,0,0,1.684,0v-3.732a.842.842,0,0,0-1.684,0" transform="translate(-326.035 -1825.055)" fill="#d6d6d8"/>
  <path id="Path_6" data-name="Path 6" d="M277.374,1811.88a.843.843,0,0,0-.842-.843H272.8a.842.842,0,1,0,0,1.684h3.732a.842.842,0,0,0,.842-.841" transform="translate(-267.888 -1773.456)" fill="#d6d6d8"/>
  <path id="Path_7" data-name="Path 7" d="M444.247,1811.88a.842.842,0,0,0,.842.841h3.732a.842.842,0,0,0,0-1.684h-3.732a.844.844,0,0,0-.842.843" transform="translate(-377.635 -1773.456)" fill="#d6d6d8"/>
  <path id="Path_8" data-name="Path 8" d="M433.423,1852.6a.831.831,0,0,0,.392.511l3.231,1.866a.842.842,0,1,0,.842-1.458l-3.231-1.865a.842.842,0,0,0-1.234.947" transform="translate(-370.721 -1799.253)" fill="#d6d6d8"/>
  <path id="Path_9" data-name="Path 9" d="M317.712,1884.841a.842.842,0,1,0,1.458.842l1.866-3.231a.842.842,0,0,0-1.458-.843Z" transform="translate(-296.96 -1818.141)" fill="#d6d6d8"/>
  <path id="Path_10" data-name="Path 10" d="M437.047,1765.509h0l-3.232,1.865a.842.842,0,0,0,.842,1.459l3.232-1.866a.842.842,0,1,0-.842-1.458" transform="translate(-370.72 -1744.383)" fill="#d6d6d8"/>
  <path id="Path_11" data-name="Path 11" d="M285.03,1855.088a.848.848,0,0,0,.42-.112l3.232-1.867a.841.841,0,1,0-.842-1.457l-3.232,1.865a.842.842,0,0,0,.422,1.571" transform="translate(-275.677 -1799.253)" fill="#d6d6d8"/>
  <path id="Path_12" data-name="Path 12" d="M405.315,1881.611a.842.842,0,1,0-1.458.842l1.866,3.231a.842.842,0,0,0,1.542-.2.835.835,0,0,0-.084-.638Z" transform="translate(-351.833 -1818.142)" fill="#d6d6d8"/>
  <path id="Path_13" data-name="Path 13" d="M318.022,1732.1h0a.842.842,0,0,0-.308,1.15l1.866,3.231a.842.842,0,0,0,1.15.309.842.842,0,0,0,.308-1.15l-1.866-3.232a.843.843,0,0,0-1.15-.308" transform="translate(-296.961 -1723.098)" fill="#d6d6d8"/>
  <path id="Path_14" data-name="Path 14" d="M265.153,1735.7l10.479,4.546a.87.87,0,0,0,1.145-.489c.037-.072.085-.173.144-.3.1-.223.238-.524.378-.847s.256-.6.345-.819c.051-.127.089-.224.115-.3a.866.866,0,0,0-.429-1.162l-10.478-4.545a.577.577,0,0,1,.46-1.059l10.479,4.545a.858.858,0,0,0,1.143-.485c.036-.071.084-.169.141-.294.1-.219.234-.515.372-.834s.264-.616.354-.838c.051-.126.091-.228.118-.3a.868.868,0,0,0-.427-1.167l-10.479-4.545a.577.577,0,0,1,.46-1.06l10.607,4.6a5.967,5.967,0,0,1,3.554,4.66,3.1,3.1,0,0,1-.011.595.877.877,0,0,0,.449,1.049l14.694,6.333-1.486,3.425-14.582-6.266a.941.941,0,0,0-1.2.314,2.982,2.982,0,0,1-.284.258,6.036,6.036,0,0,1-5.908.644l-10.608-4.6a.577.577,0,0,1,.46-1.059m32.151,14.879,18.365-42.334a1.267,1.267,0,0,1,.564-.7.473.473,0,0,1,.174-.032.8.8,0,0,1,.484.2c.133.116.571.678.636,3.011a48.125,48.125,0,0,1-.7,8.22,74.081,74.081,0,0,1-2.959,12.787,7.1,7.1,0,0,1-4.022,3.864,7.341,7.341,0,0,1-1.823.478.83.83,0,0,0-.237.056.848.848,0,0,0-.463.448l-6.7,15.449a1.533,1.533,0,0,1-.822.818,1.153,1.153,0,0,1-.884,0l-1.036-.45a1.154,1.154,0,0,1-.626-.7,1.523,1.523,0,0,1,.056-1.1m10.506-3.69a1.289,1.289,0,0,1,.668,1.693l-.459,1.059a1.287,1.287,0,0,1-1.693.668l-2.64-1.139,1.489-3.434,2.634,1.152h0" transform="translate(-263.038 -1707.507)" fill="#d6d6d8"/>
</svg>
