<svg id="Group_68" data-name="Group 68" xmlns="http://www.w3.org/2000/svg" width="76.597" height="76.708" viewBox="0 0 76.597 76.708">
  <path id="Path_15" data-name="Path 15" d="M1240.134,1722.453a.84.84,0,0,1-1.186-.093,36.582,36.582,0,0,0-27.865-12.861,37.01,37.01,0,0,0-7.108.688.842.842,0,0,1-.324-1.652,38.669,38.669,0,0,1,15.922.224,38.148,38.148,0,0,1,14.781,6.933,38.648,38.648,0,0,1,5.876,5.575.843.843,0,0,1,.2.613.833.833,0,0,1-.294.573" transform="translate(-1172.785 -1707.702)" fill="#d6d6d8"/>
  <path id="Path_16" data-name="Path 16" d="M1120.98,1748.573h0a38.2,38.2,0,0,1,8.456-15.978,38.555,38.555,0,0,1,6.722-6,.842.842,0,0,1,.966,1.38,36.615,36.615,0,1,0,57.6,30c0-1.07-.045-2.151-.138-3.211a.842.842,0,0,1,1.677-.146c.1,1.109.145,2.238.145,3.357a38.132,38.132,0,0,1-6.541,21.413,38.489,38.489,0,0,1-10.344,10.343,38.318,38.318,0,0,1-58.547-41.163" transform="translate(-1119.816 -1719.568)" fill="#d6d6d8"/>
  <path id="Path_17" data-name="Path 17" d="M1225.368,1720.6v3.731a.841.841,0,1,1-1.683,0V1720.6a.841.841,0,1,1,1.683,0" transform="translate(-1185.98 -1715.306)" fill="#d6d6d8"/>
  <path id="Path_18" data-name="Path 18" d="M1225.368,1892.884v3.732a.841.841,0,1,1-1.683,0v-3.732a.841.841,0,1,1,1.683,0" transform="translate(-1185.98 -1825.055)" fill="#d6d6d8"/>
  <path id="Path_19" data-name="Path 19" d="M1304.689,1811.88a.843.843,0,0,1,.842-.842h3.732a.842.842,0,1,1,0,1.684h-3.732a.843.843,0,0,1-.842-.841" transform="translate(-1237.58 -1773.456)" fill="#d6d6d8"/>
  <path id="Path_20" data-name="Path 20" d="M1137.815,1811.88a.843.843,0,0,1-.841.841h-3.732a.842.842,0,0,1,0-1.684h3.732a.843.843,0,0,1,.841.842" transform="translate(-1127.832 -1773.456)" fill="#d6d6d8"/>
  <path id="Path_21" data-name="Path 21" d="M1149.516,1852.6a.831.831,0,0,1-.392.511l-3.231,1.866a.841.841,0,0,1-1.15-.309.84.84,0,0,1,.308-1.15l3.232-1.865a.841.841,0,0,1,1.233.946" transform="translate(-1135.622 -1799.254)" fill="#d6d6d8"/>
  <path id="Path_22" data-name="Path 22" d="M1267.623,1884.841a.842.842,0,0,1-1.459.843l-1.865-3.233a.841.841,0,1,1,1.458-.841Z" transform="translate(-1211.779 -1818.14)" fill="#d6d6d8"/>
  <path id="Path_23" data-name="Path 23" d="M1145.892,1765.509h0l3.232,1.865a.842.842,0,1,1-.842,1.458l-3.232-1.866a.842.842,0,0,1,.842-1.458" transform="translate(-1135.622 -1744.382)" fill="#d6d6d8"/>
  <path id="Path_24" data-name="Path 24" d="M1297.909,1855.089a.849.849,0,0,1-.42-.113l-3.232-1.866a.841.841,0,0,1,.841-1.458l3.233,1.865a.843.843,0,0,1-.422,1.572" transform="translate(-1230.665 -1799.254)" fill="#d6d6d8"/>
  <path id="Path_25" data-name="Path 25" d="M1180.02,1881.61a.842.842,0,1,1,1.458.842l-1.866,3.231a.842.842,0,0,1-1.458-.842Z" transform="translate(-1156.905 -1818.142)" fill="#d6d6d8"/>
  <path id="Path_26" data-name="Path 26" d="M1267.314,1732.1h0a.842.842,0,0,1,.309,1.15l-1.866,3.232a.845.845,0,0,1-.729.421.841.841,0,0,1-.728-1.263l1.865-3.232a.843.843,0,0,1,1.15-.308" transform="translate(-1211.779 -1723.098)" fill="#d6d6d8"/>
  <path id="Path_27" data-name="Path 27" d="M1233.516,1735.689a.578.578,0,0,1,.018,1.067l-10.608,4.6a6.033,6.033,0,0,1-5.908-.645,2.8,2.8,0,0,1-.284-.258.941.941,0,0,0-1.2-.314l-14.581,6.265-1.486-3.425,14.694-6.332a.878.878,0,0,0,.449-1.05,3.08,3.08,0,0,1-.011-.594,5.966,5.966,0,0,1,3.553-4.66l10.608-4.6a.577.577,0,0,1,.766.741.577.577,0,0,1-.307.318l-10.479,4.545a.868.868,0,0,0-.427,1.166c.027.075.067.177.118.3.09.222.216.519.354.839s.27.615.371.833c.058.125.1.224.141.294a.859.859,0,0,0,1.143.486l10.479-4.546a.574.574,0,0,1,.442-.008.581.581,0,0,1,.317.308.578.578,0,0,1-.3.76l-10.478,4.546a.864.864,0,0,0-.428,1.161c.026.072.063.168.114.3.089.219.211.509.345.819s.274.624.378.848c.058.127.107.229.144.3a.87.87,0,0,0,1.144.489l10.479-4.546a.572.572,0,0,1,.441-.008m-32.536,15.993a1.159,1.159,0,0,1-.625.7l-1.038.449a1.146,1.146,0,0,1-.884,0,1.528,1.528,0,0,1-.822-.819l-6.7-15.449a.848.848,0,0,0-.463-.448.833.833,0,0,0-.238-.056,7.326,7.326,0,0,1-1.822-.478,7.1,7.1,0,0,1-4.022-3.863,74.039,74.039,0,0,1-2.959-12.788,48.162,48.162,0,0,1-.7-8.22c.066-2.332.5-2.893.636-3.01a.807.807,0,0,1,.484-.194.468.468,0,0,1,.173.031,1.266,1.266,0,0,1,.565.7l18.364,42.335a1.52,1.52,0,0,1,.056,1.105m-10.562-4.8,2.634-1.153,1.489,3.433-2.64,1.139a1.287,1.287,0,0,1-1.692-.668l-.46-1.06a1.286,1.286,0,0,1,.668-1.692h0" transform="translate(-1158.594 -1707.507)" fill="#d6d6d8"/>
</svg>
