<svg id="Group_28" data-name="Group 28" xmlns="http://www.w3.org/2000/svg" width="76.948" height="77.834" viewBox="0 0 76.948 77.834">
  <path id="Path_29" data-name="Path 29" d="M991.53,2235.684a38.94,38.94,0,0,0,33.992-19.937,1.03,1.03,0,0,0,.072-.856,1.065,1.065,0,0,0-.6-.635,1.058,1.058,0,0,0-1.327.471,36.818,36.818,0,0,1-32.133,18.838c-.13,0-.258,0-.388,0a36.916,36.916,0,0,1-36.41-36.794,36.787,36.787,0,0,1,68.9-17.968,1.061,1.061,0,0,0,1.931-.162,1.046,1.046,0,0,0-.07-.856,38.939,38.939,0,1,0-34.99,57.888c.344.007.689.013,1.032.013" transform="translate(-952.613 -2157.85)" fill="#d6d6d8"/>
  <path id="Path_30" data-name="Path 30" d="M1082.606,2242.4a1.241,1.241,0,0,0-1.24-1.24H1063.15v-13.582h18.215a1.243,1.243,0,0,0,1.24-1.241v-8.885l16.917,16.916-16.917,16.916Z" transform="translate(-1022.574 -2195.571)" fill="#d6d6d8"/>
</svg>
