<svg xmlns="http://www.w3.org/2000/svg" width="75.718" height="76.591" viewBox="0 0 75.718 76.591">
  <g id="Group_86" data-name="Group 86" transform="translate(-0.001)">
    <g id="Group_1" data-name="Group 1" transform="translate(0 0)">
      <path id="Path_1" data-name="Path 1" d="M983.371,1143.44a38.317,38.317,0,0,1-33.45-19.62,1.015,1.015,0,0,1-.07-.841,1.05,1.05,0,0,1,.6-.625,1.028,1.028,0,0,1,.39-.077,1.051,1.051,0,0,1,.915.54,36.227,36.227,0,0,0,31.619,18.537l.381,0a36.21,36.21,0,1,0-31.966-53.887,1.049,1.049,0,0,1-.915.54,1.034,1.034,0,0,1-.387-.075,1.05,1.05,0,0,1-.6-.623,1.028,1.028,0,0,1,.068-.843,38.317,38.317,0,1,1,34.431,56.962c-.339.009-.678.013-1.015.013" transform="translate(-945.947 -1066.849)" fill="#d6d6d8"/>
      <path id="Path_28" data-name="Path 28" d="M958.294,1151a1.222,1.222,0,0,0-1.221-1.22H939.15v-13.365h17.924a1.223,1.223,0,0,0,1.221-1.221v-8.742l16.646,16.646-16.646,16.646Z" transform="translate(-939.15 -1104.921)" fill="#d6d6d8"/>
    </g>
  </g>
</svg>
