<svg id="chevron-circle-up-Bold" xmlns="http://www.w3.org/2000/svg" width="24" height="24" viewBox="0 0 24 24">
<!--  <rect id="Path" width="24" height="24" fill="rgba(255,255,255,0)"/>-->
  <path id="chevron-circle-up-Bold_1_" d="M887,2108a10,10,0,1,0,10,10A10.011,10.011,0,0,0,887,2108Zm0,18a8,8,0,1,1,8-8A8.009,8.009,0,0,1,887,2126Zm3.707-7.707a1,1,0,1,1-1.414,1.414L887,2117.414l-2.293,2.293a1,1,0,0,1-1.414-1.414l3-3a1,1,0,0,1,1.414,0Z" transform="translate(-875 -2106)" fill="#6edb42"/>
</svg>
