<svg xmlns="http://www.w3.org/2000/svg" width="162.622" height="49.215" viewBox="0 0 162.622 49.215">
  <g id="Group_14" data-name="Group 14" transform="translate(-4894.815 10271.027)">
    <path id="Path_99" data-name="Path 99" d="M1822.436,268.394h0a12.082,12.082,0,0,0-9.285,4.394,12.082,12.082,0,0,0-9.285-4.394h0a12.38,12.38,0,0,0-12.223,12.44v6.09c.244,5.171,4.627,6.831,5.752,7.368h.125V280.9a6.362,6.362,0,1,1,12.694,0v6.027c.244,5.171,4.626,6.831,5.752,7.368h.124v-7.353c0-.005,0-.01,0-.015V280.9a6.362,6.362,0,1,1,12.694,0v6.027c.244,5.171,4.627,6.831,5.753,7.368h.124V280.834a12.38,12.38,0,0,0-12.223-12.44m28.1,0a12.948,12.948,0,1,0,7.857,23.225c1.341,2.243,5.093,2.67,5.093,2.67V281.345a12.949,12.949,0,0,0-12.95-12.948m0,20.107a7.175,7.175,0,1,1,7.177-7.175,7.179,7.179,0,0,1-7.177,7.175m39.884-20.107h-3.714a6.473,6.473,0,0,0-5.351,2.662l-2.915,4.532h-.04l-2.915-4.532a6.494,6.494,0,0,0-5.391-2.662h-3.674l8.306,12.947-8.306,12.948h3.674a6.609,6.609,0,0,0,5.471-2.733l2.835-4.46v.036l.04-.036,2.835,4.46a6.534,6.534,0,0,0,5.431,2.733h3.714l-8.306-12.948Z" transform="translate(3103.177 -10530.114)" fill="#6f9ab4"/>
    <path id="Path_100" data-name="Path 100" d="M2383.574,224.729a12.948,12.948,0,1,0,7.857,23.225c1.341,2.243,5.094,2.671,5.094,2.671V237.677a12.949,12.949,0,0,0-12.95-12.948m0,20.107a7.175,7.175,0,1,1,7.178-7.175,7.179,7.179,0,0,1-7.178,7.175m20.021-16.473a9.408,9.408,0,0,0-4.136-1.226v23.487h.137c1.171-.558,5.484-2.263,5.989-7.429V241h0v-3.234a7.18,7.18,0,0,1,7.278-7.078c.187,0,.365.031.548.045v-5.978c-.183-.008-.363-.025-.548-.025a13.551,13.551,0,0,0-9.271,3.637m21.562-3.627V215.42h-.133c-1.135.541-5.317,2.194-5.808,7.2v2.1h-2.868v5.941h2.868v12.753c.491,5.008,4.672,6.663,5.808,7.2h.133V230.668h6.378s-1.419-5.4-6.378-5.932" transform="translate(2625.901 -10486.447)" fill="#6f9ab4"/>
    <path id="Path_101" data-name="Path 101" d="M1793.59,467.654l2.023-5.829h2.094l2,5.829H1798l-.375-1.183h-2.155l-.375,1.183Zm2.965-4.606-.75,2.372h1.492Z" transform="translate(3101.568 -10689.563)" fill="#6f9ab4"/>
    <path id="Path_102" data-name="Path 102" d="M1842.811,467.654v-5.829h2.163c2.19,0,3.306,1.076,3.306,2.845v.065c0,1.785-1.117,2.919-3.315,2.919Zm1.622-1.174h.48a1.5,1.5,0,0,0,1.684-1.72v-.066a1.482,1.482,0,0,0-1.7-1.7h-.462Z" transform="translate(3060.994 -10689.563)" fill="#6f9ab4"/>
    <path id="Path_103" data-name="Path 103" d="M1886.807,467.654l-2.077-5.829h1.736l1.361,4.263,1.369-4.263h1.518l-2.059,5.829Z" transform="translate(3026.438 -10689.564)" fill="#6f9ab4"/>
    <path id="Path_104" data-name="Path 104" d="M1933.107,467.654v-5.829h4.2v1.166h-2.591v1.166h2.067v1.092h-2.067v1.231h2.73v1.174Z" transform="translate(2986.56 -10689.564)" fill="#6f9ab4"/>
    <path id="Path_105" data-name="Path 105" d="M1973.04,467.654v-5.829h2.347c1.544,0,2.478.6,2.478,1.81v.032a1.537,1.537,0,0,1-1.2,1.54l1.562,2.446h-1.71l-1.369-2.16h-.506v2.16Zm1.605-3.163h.672c.654,0,.977-.252.977-.766v-.033c0-.53-.349-.726-.969-.726h-.68Z" transform="translate(2953.643 -10689.563)" fill="#6f9ab4"/>
    <path id="Path_106" data-name="Path 106" d="M2015.268,467.654v-4.663h-1.649v-1.166h4.92v1.166h-1.649v4.663Z" transform="translate(2920.193 -10689.564)" fill="#6f9ab4"/>
    <rect id="Rectangle_8" data-name="Rectangle 8" width="1.632" height="5.829" transform="translate(4941.351 -10227.738)" fill="#6f9ab4"/>
    <path id="Path_107" data-name="Path 107" d="M2080.871,465.43h1.544a1.058,1.058,0,0,0,.253.6,1.116,1.116,0,0,0,.837.245c.567,0,.907-.27.907-.669a.465.465,0,0,0-.227-.432,2.538,2.538,0,0,0-.846-.22,3.778,3.778,0,0,1-1.788-.555,1.5,1.5,0,0,1-.523-1.263c0-1.02.916-1.777,2.356-1.777,1.457,0,2.294.587,2.407,1.785h-1.5c-.069-.465-.358-.7-.907-.7s-.82.245-.82.579a.5.5,0,0,0,.2.424,2.413,2.413,0,0,0,.855.22c1.544.171,2.347.554,2.347,1.793,0,1.052-.925,1.908-2.46,1.908-1.719,0-2.573-.726-2.634-1.94" transform="translate(2864.755 -10689.183)" fill="#6f9ab4"/>
    <rect id="Rectangle_9" data-name="Rectangle 9" width="1.632" height="5.829" transform="translate(4953.427 -10227.738)" fill="#6f9ab4"/>
    <path id="Path_108" data-name="Path 108" d="M2151.9,467.654v-5.829h1.841l2.172,3.538v-3.538h1.422v5.829h-1.588l-2.425-3.881v3.881Z" transform="translate(2806.208 -10689.564)" fill="#6f9ab4"/>
    <path id="Path_109" data-name="Path 109" d="M2198.089,464.356v-.066a2.988,2.988,0,0,1,3.228-2.975c1.439,0,2.7.611,2.844,2.1h-1.6c-.1-.611-.541-.906-1.239-.906-.968,0-1.553.7-1.553,1.8v.065c0,1.02.445,1.8,1.588,1.8a1.427,1.427,0,0,0,1.021-.31,1.121,1.121,0,0,0,.34-.734h-1.274v-1.068h2.87v.669c0,1.509-1.064,2.6-3,2.6-2.085,0-3.228-1.239-3.228-2.975" transform="translate(2768.13 -10689.144)" fill="#6f9ab4"/>
    <path id="Path_110" data-name="Path 110" d="M2272.743,464.313l-1,1.842,1.038,1.191h-1.841l-.41-.472a2.513,2.513,0,0,1-1.693.562,2.488,2.488,0,0,1-1.561-.464,1.535,1.535,0,0,1-.594-1.272c0-.775.515-1.313,1.378-1.7a1.841,1.841,0,0,1-.41-1.052c0-.978.881-1.492,1.927-1.492.951,0,1.806.457,1.806,1.329,0,.652-.427,1.125-1.265,1.459l.873.994.506-.921Zm-2.948,1.712-1.082-1.224a.819.819,0,0,0-.523.742.772.772,0,0,0,.872.791,1.007,1.007,0,0,0,.733-.31m-.358-2.357c.462-.2.672-.448.672-.782a.476.476,0,0,0-.5-.49.531.531,0,0,0-.567.563,1.162,1.162,0,0,0,.393.709" transform="translate(2711.589 -10689.256)" fill="#6f9ab4"/>
    <path id="Path_111" data-name="Path 111" d="M2335.419,467.654v-5.829h2.111l1.317,3.342,1.309-3.342h2.076v5.829h-1.6v-3.839l-1.614,3.839h-.54l-1.614-3.839v3.839Z" transform="translate(2654.926 -10689.564)" fill="#6f9ab4"/>
    <path id="Path_112" data-name="Path 112" d="M2388.666,467.654l2.023-5.829h2.094l2,5.829h-1.7l-.375-1.183h-2.155l-.375,1.183Zm2.966-4.606-.75,2.372h1.492Z" transform="translate(2611.033 -10689.563)" fill="#6f9ab4"/>
    <path id="Path_113" data-name="Path 113" d="M2437.885,467.654v-5.829h2.347c1.544,0,2.477.6,2.477,1.81v.032a1.536,1.536,0,0,1-1.2,1.54l1.562,2.446h-1.71l-1.37-2.16h-.506v2.16Zm1.605-3.163h.672c.654,0,.977-.252.977-.766v-.033c0-.53-.349-.726-.968-.726h-.68Z" transform="translate(2570.461 -10689.563)" fill="#6f9ab4"/>
    <path id="Path_114" data-name="Path 114" d="M2481.891,467.654v-5.829h1.622v2.4l2.015-2.4h1.692l-2.364,2.723,2.495,3.106h-1.876l-1.963-2.527v2.527Z" transform="translate(2534.187 -10689.564)" fill="#6f9ab4"/>
    <path id="Path_115" data-name="Path 115" d="M2526.99,467.654v-5.829h4.2v1.166H2528.6v1.166h2.067v1.092H2528.6v1.231h2.73v1.174Z" transform="translate(2497.01 -10689.564)" fill="#6f9ab4"/>
    <path id="Path_116" data-name="Path 116" d="M2566.038,467.654v-4.663h-1.649v-1.166h4.92v1.166h-1.649v4.663Z" transform="translate(2466.181 -10689.564)" fill="#6f9ab4"/>
    <rect id="Rectangle_10" data-name="Rectangle 10" width="1.632" height="5.829" transform="translate(5038.109 -10227.738)" fill="#6f9ab4"/>
    <path id="Path_117" data-name="Path 117" d="M2633.927,467.654v-5.829h1.841l2.172,3.538v-3.538h1.422v5.829h-1.587l-2.425-3.881v3.881Z" transform="translate(2408.859 -10689.564)" fill="#6f9ab4"/>
    <path id="Path_118" data-name="Path 118" d="M2680.117,464.356v-.066a2.988,2.988,0,0,1,3.228-2.975c1.439,0,2.7.611,2.844,2.1h-1.6c-.1-.611-.541-.906-1.239-.906-.968,0-1.553.7-1.553,1.8v.065c0,1.02.445,1.8,1.588,1.8a1.426,1.426,0,0,0,1.021-.31,1.117,1.117,0,0,0,.34-.734h-1.273v-1.068h2.87v.669c0,1.509-1.064,2.6-3,2.6a2.887,2.887,0,0,1-3.228-2.975" transform="translate(2370.784 -10689.144)" fill="#6f9ab4"/>
  </g>
</svg>
