<svg id="Group_29" data-name="Group 29" xmlns="http://www.w3.org/2000/svg" width="96.303" height="76.708" viewBox="0 0 96.303 76.708">
  <path id="Path_31" data-name="Path 31" d="M1392.925,2826.556a38.374,38.374,0,0,0,33.5-19.65,1.009,1.009,0,0,0,.07-.841,1.045,1.045,0,0,0-1.9-.162,36.283,36.283,0,0,1-31.667,18.564h-.382a36.266,36.266,0,1,1,32.015-53.97,1.054,1.054,0,0,0,.917.542,1.029,1.029,0,0,0,.388-.076,1.053,1.053,0,0,0,.6-.625,1.03,1.03,0,0,0-.069-.844,38.376,38.376,0,1,0-34.483,57.049c.34.01.679.014,1.016.014" transform="translate(-1354.572 -2749.849)" fill="#d6d6d8"/>
  <path id="Path_32" data-name="Path 32" d="M1540.861,2834.369a1.223,1.223,0,0,0-1.222-1.221h-17.952v-13.385h17.952a1.225,1.225,0,0,0,1.222-1.223v-8.756l16.672,16.67-16.672,16.672Z" transform="translate(-1461.23 -2788.101)" fill="#d6d6d8"/>
  <path id="Path_35" data-name="Path 35" d="M1433.706,2813.03a15.556,15.556,0,1,0,15.556,15.556,15.556,15.556,0,0,0-15.556-15.556m10.2,16.753h-8.951v9.68a1.2,1.2,0,0,1-1.2,1.2h-.1a1.2,1.2,0,0,1-1.2-1.2v-9.68h-8.952a1.2,1.2,0,0,1,0-2.394h8.952v-9.68a1.2,1.2,0,0,1,1.2-1.2h.1a1.2,1.2,0,0,1,1.2,1.2v9.68h8.951a1.2,1.2,0,1,1,0,2.394" transform="translate(-1395.15 -2790.174)" fill="#d6d6d8"/>
</svg>
