<svg id="Group_72" data-name="Group 72" xmlns="http://www.w3.org/2000/svg" width="96.125" height="76.708" viewBox="0 0 96.125 76.708">
  <path id="Path_33" data-name="Path 33" d="M574.422,2826.556a38.375,38.375,0,0,1-33.5-19.649,1.018,1.018,0,0,1-.071-.844,1.052,1.052,0,0,1,.6-.624,1,1,0,0,1,.391-.078,1.054,1.054,0,0,1,.917.541,36.285,36.285,0,0,0,31.667,18.566l.382,0a36.266,36.266,0,1,0-32.015-53.969,1.045,1.045,0,0,1-1.9-.159,1.032,1.032,0,0,1,.069-.845,38.376,38.376,0,1,1,34.484,57.05c-.34.01-.679.013-1.017.013" transform="translate(-516.651 -2749.848)" fill="#d6d6d8"/>
  <path id="Path_34" data-name="Path 34" d="M493.24,2834.035a1.224,1.224,0,0,0-1.222-1.224H474.066v-13.387h17.951a1.223,1.223,0,0,0,1.222-1.222v-8.756l16.672,16.673-16.672,16.672Z" transform="translate(-474.066 -2787.885)" fill="#d6d6d8"/>
  <path id="Path_36" data-name="Path 36" d="M605.749,2813.029a15.557,15.557,0,1,0,15.556,15.558,15.557,15.557,0,0,0-15.556-15.558m10.2,16.754H607v9.679a1.2,1.2,0,0,1-1.2,1.2h-.1a1.2,1.2,0,0,1-1.2-1.2v-9.679h-8.952a1.2,1.2,0,0,1,0-2.394H604.5v-9.681a1.2,1.2,0,0,1,1.2-1.2h.1a1.2,1.2,0,0,1,1.2,1.2v9.681h8.953a1.2,1.2,0,0,1,0,2.394" transform="translate(-548.182 -2790.173)" fill="#d6d6d8"/>
</svg>
