<?xml version="1.0" encoding="utf-8"?>
<!-- Generator: Adobe Illustrator 26.5.0, SVG Export Plug-In . SVG Version: 6.00 Build 0)  -->
<svg version="1.1" id="Layer_1" xmlns="http://www.w3.org/2000/svg" xmlns:xlink="http://www.w3.org/1999/xlink" x="0px" y="0px"
	 viewBox="0 0 500 500" style="enable-background:new 0 0 500 500;" xml:space="preserve">
<style type="text/css">
	.st0{fill:#FFFFFF;}
</style>
<g>
	<path class="st0" d="M229.8,33.4C283.7,30,339.1,45,382,78c74.4,57.2,105.9,164.2,74.5,252.7S333,482.2,239.2,479.6
		C145.4,477,57,409,30.5,319C-4.3,201.1,69.4,69.1,188.9,39.7C202.3,36.4,216,34.3,229.8,33.4z M245.4,57.9
		C136.7,57.9,47.6,147,47.7,255.7c0.1,108.7,88.7,197.3,197.5,197.6c108.6,0.3,197.8-88.7,197.9-197.6
		C443.3,147,354.2,57.9,245.4,57.9z"/>
	<path class="st0" d="M245.9,244.2c46.1,0,92.1,0,138.2,0c10.1,0,15.3,5.4,15.2,15.4c-1.1,72.7-53.1,134.6-124.7,148.7
		C191.6,424.6,109.6,369,94.4,286c-1.6-9-2.2-18.2-2.7-27.3c-0.5-8.9,5.4-14.5,14.3-14.5C152.6,244.2,199.3,244.2,245.9,244.2z
		 M372,270.6c-84.4,0-168.6,0-252.9,0c4.4,56.8,54,112.8,124.4,114C310.5,385.7,365.5,334.6,372,270.6z"/>
	<path class="st0" d="M343.8,154.7c19.7,0.1,36.6,7,50.8,20.6c4,3.8,5.6,8.4,3.8,13.9c-1.7,5.2-5.4,8.2-10.7,9.1
		c-4.7,0.8-8.5-1.2-11.8-4.3c-9.3-8.8-20.4-13.2-33.2-12.9c-11.7,0.3-21.8,4.4-30.4,12.3c-3.8,3.5-7.9,5.9-13.4,4.6
		c-5.1-1.2-8.4-4.3-9.9-9.4c-1.5-5.2,0-9.6,3.7-13.1C306.9,161.8,324,154.8,343.8,154.7z"/>
	<path class="st0" d="M147,154.7c19.3,0.1,36.1,6.8,50.2,20c6.4,6.1,7,14,1.5,19.7c-5.4,5.6-13,5.5-19.5-0.3
		c-19.4-17.4-45.1-17.4-64.3,0c-6.6,6-14.4,6-19.8,0.1c-5.2-5.8-4.6-13.4,1.7-19.4C110.2,161.9,128.2,154.7,147,154.7z"/>
</g>
</svg>
