<?xml version="1.0" encoding="UTF-8" standalone="no"?> <svg xmlns:dc="http://purl.org/dc/elements/1.1/" xmlns:cc="http://creativecommons.org/ns#" xmlns:rdf="http://www.w3.org/1999/02/22-rdf-syntax-ns#" xmlns:svg="http://www.w3.org/2000/svg" xmlns="http://www.w3.org/2000/svg" viewBox="0 0 133.33333 133.33333" height="133.33333" width="133.33333" xml:space="preserve" id="svg2" version="1.1"><metadata id="metadata8"></metadata><defs id="defs6"><clipPath id="clipPath18"><path id="path16" d="M 0,100 H 100 V 0 H 0 Z"></path></clipPath></defs><g transform="matrix(1.3333333,0,0,-1.3333333,0,133.33333)" id="g10"><g id="g12"><g clip-path="url(#clipPath18)" id="g14"><g transform="translate(49.9897,22.3506)" id="g20"><path id="path22" style="fill:#ffffff;fill-opacity:1;fill-rule:nonzero;stroke:none" d="M 0,0 C -15.287,0 -27.71,12.411 -27.71,27.708 -27.71,43.004 -15.287,55.42 0,55.42 15.294,55.42 27.718,43.004 27.718,27.708 27.718,12.411 15.294,0 0,0 m 0,77.65 c -27.602,0 -49.99,-22.391 -49.99,-50.002 0,-27.626 22.388,-50 49.99,-50 11.419,0 21.917,3.853 30.341,10.313 5.178,-8.663 19.669,-10.313 19.669,-10.313 v 8.063 39.737 2.2 C 50.01,55.259 27.628,77.65 0,77.65"></path></g><g transform="translate(49.998,61.1401)" id="g24"><path id="path26" style="fill:#ffffff;fill-opacity:1;fill-rule:nonzero;stroke:none" d="m 0,0 c -6.149,0 -11.138,-4.989 -11.138,-11.14 0,-6.155 4.989,-11.14 11.138,-11.14 2.544,0 4.883,0.859 6.759,2.298 l 0.006,-0.009 c 2.66,2.036 4.377,5.242 4.377,8.851 C 11.142,-4.989 6.155,0 0,0"></path></g></g></g></g></svg> 